<svg t="1779291896453" class="icon" viewBox="0 0 1024 1024" version="1.1" xmlns="http://www.w3.org/2000/svg" p-id="9368"
     xmlns:xlink="http://www.w3.org/1999/xlink" width="16" height="16">
    <path
        d="M572.91974805 512l242.82096754-242.82096757c16.30246778-16.30246778 16.30246778-43.75925563 0-60.91974802-16.30246778-16.30246778-43.75925563-16.30246778-60.91974802 0L512 451.08025195 269.17903243 208.25928441c-16.30246778-16.30246778-43.75925563-16.30246778-60.91974802 0-16.30246778 16.30246778-16.30246778 43.75925563 0 60.91974802L451.08025195 512l-242.82096754 242.82096757c-16.30246778 16.30246778-16.30246778 43.75925563 0 60.91974802 16.30246778 16.30246778 43.75925563 16.30246778 60.91974802 0l242.82096757-242.82096754 242.82096757 242.82096754c16.30246778 16.30246778 43.75925563 16.30246778 60.91974802 0 16.30246778-16.30246778 16.30246778-43.75925563 0-60.91974802L572.91974805 512z"
        fill="#3A414B" p-id="9369"></path>
</svg>