<svg t="1779290830629" class="icon" viewBox="0 0 1024 1024" version="1.1" xmlns="http://www.w3.org/2000/svg" p-id="5325"
     xmlns:xlink="http://www.w3.org/1999/xlink" width="16" height="16">
    <path
        d="M852.821333 468.010667H279.04c-0.085333 0-0.170667-0.213333-0.085333-0.213334l216.405333-208a43.946667 43.946667 0 1 0-61.013333-63.402666l-294.570667 283.093333a44.032 44.032 0 0 0 0 63.402667l296.192 284.714666a43.818667 43.818667 0 0 0 62.208-1.194666 44.032 44.032 0 0 0-1.237333-62.208l-216.362667-208c-0.128-0.085333 0-0.213333 0.085333-0.213334H853.76c23.381333 0 42.496-18.304 43.904-41.301333 1.493333-25.472-19.413333-46.677333-44.885333-46.677333z"
        fill="#000000" opacity=".65" p-id="5326"></path>
</svg>