<svg t="1779289603239" class="icon" viewBox="0 0 1024 1024" version="1.1" xmlns="http://www.w3.org/2000/svg" p-id="8210" xmlns:xlink="http://www.w3.org/1999/xlink" width="16" height="16"><path d="M509.44 512.56888889m-477.01333333 0a477.01333333 477.01333333 0 1 0 954.02666666 0 477.01333333 477.01333333 0 1 0-954.02666666 0Z" fill="#FFFFFF" p-id="8211"></path><path d="M273.06666667 451.12888889L136.53333333 214.75555556C223.57333333 105.52888889 358.4 34.70222222 509.44 34.70222222c174.93333333 0 327.68 93.86666667 410.45333333 233.81333334H530.77333333c-6.82666667-0.85333333-14.50666667-0.85333333-21.33333333-0.85333334-113.49333333 0.85333333-209.06666667 78.50666667-236.37333333 183.46666667z" fill="#DD4E41" p-id="8212"></path><path d="M680.10666667 337.63555556h273.92c21.33333333 53.76 32.42666667 112.64 32.42666666 174.08 0 261.97333333-210.77333333 474.45333333-471.89333333 477.01333333l195.41333333-337.92c27.30666667-39.25333333 43.52-87.89333333 43.52-139.09333333 0-67.41333333-28.16-129.70666667-73.38666666-174.08z" fill="#FFCD41" p-id="8213"></path><path d="M336.21333333 512.56888889c0-95.57333333 77.65333333-173.22666667 173.22666667-173.22666667S682.66666667 416.99555556 682.66666667 512.56888889s-77.65333333 173.22666667-173.22666667 173.22666667-173.22666667-77.65333333-173.22666667-173.22666667z" fill="#4C8BF5" p-id="8214"></path><path d="M575.14666667 748.08888889l-136.53333334 237.22666667C209.06666667 951.18222222 32.42666667 752.35555556 32.42666667 513.42222222c0-85.33333333 22.18666667-164.69333333 61.44-233.81333333L288.42666667 615.82222222c39.25333333 82.77333333 123.73333333 140.8 221.01333333 140.8 22.18666667 0 44.37333333-3.41333333 65.70666667-8.53333333z" fill="#1DA362" p-id="8215"></path></svg>