<svg xmlns="http://www.w3.org/2000/svg" viewBox="0 0 1024 1024" width="16" height="16">
  <path d="M394.7 755.6a29.4 29.4 0 1 1-58.9 0v-160.9a98.1 98.1 0 0 1 27.3-67.4 91.7 91.7 0 0 1 65.7-27.7h168.5a92.6 92.6 0 0 1 65.7 27.7 97.7 97.7 0 0 1 26.9 67.4v256a112.2 112.2 0 0 1-31.1 78.1 106.2 106.2 0 0 1-75.9 32.4H284.2a124.6 124.6 0 0 1-90-38.4 131.4 131.4 0 0 1-37.1-92.2v-311.9H50.8a29.4 29.4 0 0 1-29.4-29.9 30.3 30.3 0 0 1 11.9-24.3l462.5-393.8a29 29 0 0 1 38.4 0l457.8 394.2a29.9 29.9 0 0 1-18.8 52.9H869.1v361a80.2 80.2 0 0 1-23 59.7 76.8 76.8 0 0 1-55 23.5h-7.7a29.4 29.4 0 0 1-29-30.3 29.4 29.4 0 0 1 29-29.9h7.7a18.3 18.3 0 0 0 13.7-6 21.3 21.3 0 0 0 6-14.1v-393a29.4 29.4 0 0 1 29-30.3h53.3L512 246.3 128 571.8h53.8a29.4 29.4 0 0 1 30 30.3v341.3a69.5 69.5 0 0 0 20.5 49.5 67 67 0 0 0 48.2 20.9h298.7a48.6 48.6 0 0 0 34.6-14.9 49.5 49.5 0 0 0 14.5-35.4v-256a34.6 34.6 0 0 0-10.2-24.7 32.4 32.4 0 0 0-23.9-10.2H428.8a34.1 34.1 0 0 0-24.3 10.2 35.8 35.8 0 0 0-9.8 24.7v160.9z" fill="#000000"/>
</svg>
