<svg xmlns="http://www.w3.org/2000/svg" viewBox="0 0 1024 1024" width="16" height="16">
  <path d="M524.16 64c-247.04 0-448 200.96-448 448s200.96 448 448 448 448-200.96 448-448-200.96-448-448-448z m0 96c123.52 0 231.68 64 294.4 160h-294.4c-88.32 0-162.56 60.16-184.96 142.08L217.6 339.84A350.528 350.528 0 0 1 524.16 160z m0 448c-53.12 0-96-42.88-96-96s42.88-96 96-96 96 42.88 96 96-42.88 96-96 96zM172.16 512c0-25.6 2.56-49.92 7.68-73.6l199.04 199.04 0.64-0.64c34.56 40.32 85.12 65.92 142.08 66.56l-85.76 148.48A351.488 351.488 0 0 1 172.16 512z m368 351.36l132.48-229.12-1.28-0.64c27.52-33.28 44.8-75.52 44.8-121.6 0-35.2-10.24-67.84-26.88-96h172.8c8.96 30.72 13.44 62.72 13.44 96 0.64 188.8-149.12 342.4-335.36 351.36z" fill="#888888"/>
</svg>
