<?xml version="1.0" standalone="no"?><!DOCTYPE svg PUBLIC "-//W3C//DTD SVG 1.1//EN" "http://www.w3.org/Graphics/SVG/1.1/DTD/svg11.dtd"><svg class="icon" viewBox="0 0 1024 1024" version="1.1" xmlns="http://www.w3.org/2000/svg" width="16" height="16"><path d="M949.9 899l-124-124.1c28.2-33.3 51.1-70.4 68.2-110.8 22.5-53.3 34-109.9 34-168.2s-11.4-114.9-34-168.2c-21.8-51.5-52.9-97.6-92.6-137.3-39.7-39.7-85.8-70.8-137.3-92.6C610.9 75.4 554.3 64 496 64S381.1 75.4 327.8 98c-51.5 21.8-97.6 52.9-137.3 92.6-39.7 39.7-70.8 85.8-92.6 137.3C75.4 381.1 64 437.7 64 496s11.4 114.9 34 168.2c21.8 51.5 52.9 97.6 92.6 137.3 39.7 39.7 85.8 70.8 137.3 92.6 53.3 22.5 109.9 34 168.2 34s114.9-11.4 168.2-34c40.4-17.1 77.5-40 110.8-68.2l123.9 124c14 14 36.9 14 50.9 0s14-36.9 0-50.9zM496 856c-198.8 0-360-161.2-360-360s161.2-360 360-360 360 161.2 360 360-161.2 360-360 360z" fill="#333333"></path><path d="M432 352h-96c-17.6 0-32 14.4-32 32v224c0 17.6 14.4 32 32 32s32-14.4 32-32V480h64c53 0 96-43 96-96s-43-96-96-96z m0 128h-64v-64h64c17.6 0 32 14.4 32 32s-14.4 32-32 32zM656 416l-48-48 48-48c12.8-12.8 12.8-32 0-44.8-12.8-12.8-32-12.8-44.8 0l-48 48-48-48c-12.8-12.8-32-12.8-44.8 0-12.8 12.8-12.8 32 0 44.8l48 48-48 48c-12.8 12.8-12.8 32 0 44.8 6.4 6.4 14.4 9.6 22.4 9.6s16-3.2 22.4-9.6l48-48 48 48c6.4 6.4 14.4 9.6 22.4 9.6s16-3.2 22.4-9.6c12.8-12.8 12.8-32 0-44.8z" fill="#333333"></path></svg>