<svg t="1779449476342" class="icon" viewBox="0 0 1024 1024" version="1.1" xmlns="http://www.w3.org/2000/svg" p-id="74722" width="16" height="16"><path d="M384 53.333333a42.666667 42.666667 0 0 0-42.666667 42.666667v213.333333H128a42.666667 42.666667 0 0 0 0 85.333334h256q4.181333 0 8.32-0.853334 4.138667-0.768 8.021333-2.389333 3.84-1.621333 7.381334-3.968 3.456-2.304 6.442666-5.290667 2.986667-2.986667 5.290667-6.442666 2.346667-3.498667 3.968-7.381334 1.621333-3.882667 2.432-8.021333Q426.666667 356.181333 426.666667 352v-256a42.666667 42.666667 0 0 0-42.666667-42.666667zM640 938.666667a42.666667 42.666667 0 0 0 42.666667-42.666667v-213.333333h213.333333a42.666667 42.666667 0 0 0 0-85.333334h-256q-4.181333 0-8.32 0.853334-4.138667 0.768-8.021333 2.389333-3.84 1.621333-7.381334 3.968-3.456 2.304-6.442666 5.290667-2.986667 2.986667-5.290667 6.442666-2.346667 3.498667-3.968 7.381334-1.621333 3.882667-2.432 8.021333Q597.333333 635.818667 597.333333 640v256a42.666667 42.666667 0 0 0 42.666667 42.666667zM85.333333 640a42.666667 42.666667 0 0 0 42.666667 42.666667h213.333333v213.333333a42.666667 42.666667 0 0 0 85.333334 0v-256q0-4.181333-0.853334-8.32-0.768-4.138667-2.389333-8.021333-1.621333-3.84-3.968-7.381334-2.304-3.456-5.290667-6.442666-2.986667-2.986667-6.442666-5.290667-3.498667-2.346667-7.381334-3.968-3.882667-1.621333-8.021333-2.432Q388.181333 597.333333 384 597.333333H128a42.666667 42.666667 0 0 0-42.666667 42.666667zM938.666667 352a42.666667 42.666667 0 0 0-42.666667-42.666667h-213.333333v-213.333333a42.666667 42.666667 0 0 0-85.333334 0v256q0 4.181333 0.853334 8.32 0.768 4.138667 2.389333 8.021333 1.621333 3.84 3.968 7.381334 2.304 3.456 5.290667 6.442666 2.986667 2.986667 6.442666 5.290667 3.498667 2.346667 7.381334 3.968 3.882667 1.621333 8.021333 2.432 4.138667 0.810667 8.32 0.810667h256a42.666667 42.666667 0 0 0 42.666667-42.666667z" fill="#525252" p-id="74723"></path></svg>